<svg xmlns="http://www.w3.org/2000/svg" viewBox="0 0 1004.4 242.41"><defs><style>.a{fill:#6bbc57;stroke:#f7f9f7;stroke-width:9.4px;}.a,.e{stroke-miterlimit:10;}.b,.c{fill:#f3fff0;}.c{font-size:30px;font-family:Open Sans;}.d{font-weight:700;}.e{fill:#fcfcfc;stroke:#fff8f8;stroke-width:0.89px;}.f{fill:#b5d13c;}.g{fill:#b4ca32;}.h{fill:#88931c;}.i{opacity:0.1;}.j{fill:#a16324;}.k{fill:#919c24;}.l{fill:#c9d551;}.m{fill:#86a028;}</style></defs><title>Logo_PdP10ABR2021</title><rect class="a" x="4.7" y="4.7" width="995" height="232.06" rx="4.7" ry="4.7"/><path class="b" d="M348.2,54.5l-4.14-26.05,2-.31,4.09,26.06Z" transform="translate(-9.8 -3.98)"/><path class="b" d="M367.29,38.24c4.19-.58,6.28-0.85,10.48-1.39l1.53,11.94a25.53,25.53,0,0,1-8.95,2.82c-4.42.6-8-.07-10.68-2.05s-4.39-5.09-5-9.35a13.9,13.9,0,0,1,.73-7.32,12,12,0,0,1,4.44-5.5,16.84,16.84,0,0,1,7.46-2.75,21.33,21.33,0,0,1,8.65.46l-0.59,1.75a19.54,19.54,0,0,0-7.95-.55c-3.79.51-6.64,2-8.54,4.45a11.43,11.43,0,0,0-2,9.08q0.87,5.89,4.41,8.41c2.35,1.68,5.52,2.24,9.51,1.7A19.31,19.31,0,0,0,377.16,48l-1.2-9.2c-3.38.44-5.07,0.66-8.44,1.12Z" transform="translate(-9.8 -3.98)"/><path class="b" d="M386.5,49.17L383.33,23l2-.24,2.92,24.47c5.37-.64,8.05-0.94,13.42-1.5l0.18,1.72C395.72,48.09,392.65,48.43,386.5,49.17Z" transform="translate(-9.8 -3.98)"/><path class="b" d="M422.1,45.5c-6.16.53-9.23,0.82-15.39,1.44L404.06,20.7c6.31-.64,9.46-0.93,15.77-1.47L420,20.91c-5.5.47-8.25,0.73-13.74,1.27l1,9.93c5.14-.51,7.71-0.75,12.85-1.19l0.15,1.69c-5.13.44-7.7,0.68-12.83,1.19l1.12,11.26c5.38-.53,8.06-0.78,13.44-1.24Z" transform="translate(-9.8 -3.98)"/><path class="b" d="M443.6,37.06a6.19,6.19,0,0,1-2.26,5.39,11.45,11.45,0,0,1-6.76,2.41,23.61,23.61,0,0,1-8-.45l-0.15-1.83a21.92,21.92,0,0,0,7.88.6,9.29,9.29,0,0,0,5.41-1.88,4.62,4.62,0,0,0,1.78-4,4.25,4.25,0,0,0-.85-2.43,6.08,6.08,0,0,0-2.34-1.64,28.35,28.35,0,0,0-4.65-1.42,16.19,16.19,0,0,1-6.28-2.53,5.71,5.71,0,0,1-2-4.15,5.72,5.72,0,0,1,2.14-5,10.68,10.68,0,0,1,6.39-2.36,20.42,20.42,0,0,1,7.75.88L441,20.24a19,19,0,0,0-7-.89,8.57,8.57,0,0,0-5,1.73,4.27,4.27,0,0,0-1.6,3.82,4.5,4.5,0,0,0,.77,2.35,5.17,5.17,0,0,0,2,1.54,27,27,0,0,0,4.63,1.45A25.44,25.44,0,0,1,440,31.94a6.88,6.88,0,0,1,2.6,2.11A5.82,5.82,0,0,1,443.6,37.06Z" transform="translate(-9.8 -3.98)"/><path class="b" d="M450,43.48l-1.57-26.33,2-.12L452,43.37Z" transform="translate(-9.8 -3.98)"/><path class="b" d="M473.21,33c-4.63.17-6.94,0.27-11.57,0.49-1.41,3.8-2.11,5.69-3.49,9.49l-2.18.11q5-13.56,10.22-27l1.29-.05q6.25,13,12.22,26.06l-2.22.07C475.78,38.55,474.93,36.71,473.21,33Zm-10.93-1.2c4.08-.19,6.12-0.28,10.2-0.43-1.7-3.74-2.55-5.61-4.27-9.35Q467.67,21,466.9,19a27.69,27.69,0,0,1-1,3.19C464.42,26.06,463.7,28,462.28,31.84Z" transform="translate(-9.8 -3.98)"/><path class="b" d="M505.88,16.57q-5.44,0-8.52,3.26t-3,8.74q0.09,5.65,3,8.72c2,2.05,4.59,3.06,8.16,3a23.57,23.57,0,0,0,6.42-.87v1.62a23,23,0,0,1-6.87.94c-4,0-7-1.13-9.36-3.49s-3.51-5.68-3.59-10a14.59,14.59,0,0,1,1.55-7.12,11.39,11.39,0,0,1,4.73-4.81,15.12,15.12,0,0,1,7.28-1.74,18.67,18.67,0,0,1,7.59,1.43L512.52,18A15.6,15.6,0,0,0,505.88,16.57Z" transform="translate(-9.8 -3.98)"/><path class="b" d="M520.6,30.19l-0.09,11.49h-2c0.07-10.55.1-15.83,0.17-26.38l6.89,0.07c3.59,0,6.24.7,7.93,1.94A6.22,6.22,0,0,1,536,22.81a6.77,6.77,0,0,1-1.62,4.44,8.62,8.62,0,0,1-4.66,2.53c3,4.86,4.52,7.29,7.47,12.17l-2.36-.05c-2.81-4.66-4.23-7-7.11-11.62Zm0-1.59,5.46,0.06a9.33,9.33,0,0,0,5.64-1.4,5.15,5.15,0,0,0,2.09-4.35,5,5,0,0,0-1.89-4.42c-1.3-.94-3.44-1.43-6.42-1.47l-4.79,0Z" transform="translate(-9.8 -3.98)"/><path class="b" d="M542,42.08l0.76-26.37,2,0.06L544,42.14Z" transform="translate(-9.8 -3.98)"/><path class="b" d="M568,36.33a6.19,6.19,0,0,1-2.88,5.09,11.45,11.45,0,0,1-7,1.6,23.57,23.57,0,0,1-7.89-1.38l0.07-1.84A21.89,21.89,0,0,0,558,41.32a9.29,9.29,0,0,0,5.59-1.23,4.63,4.63,0,0,0,2.24-3.8,4.25,4.25,0,0,0-.55-2.51,6.07,6.07,0,0,0-2.13-1.9,28.29,28.29,0,0,0-4.45-2,16.17,16.17,0,0,1-5.93-3.25,5.71,5.71,0,0,1-1.52-4.36A5.72,5.72,0,0,1,554,17.58,10.68,10.68,0,0,1,560.58,16a20.41,20.41,0,0,1,7.59,1.78l-0.81,1.55a19,19,0,0,0-6.81-1.7,8.56,8.56,0,0,0-5.16,1.13,4.28,4.28,0,0,0-2,3.6,4.51,4.51,0,0,0,.49,2.42,5.17,5.17,0,0,0,1.82,1.76,27,27,0,0,0,4.43,2,25.4,25.4,0,0,1,4.92,2.3,6.88,6.88,0,0,1,2.33,2.4A5.83,5.83,0,0,1,568,36.33Z" transform="translate(-9.8 -3.98)"/><path class="b" d="M580.91,43.91l-2-.13,1.58-24.59c-3.75-.24-5.63-0.35-9.38-0.56l0.1-1.73c8.33,0.46,12.5.73,20.82,1.35L591.91,20c-3.75-.28-5.62-0.41-9.38-0.66Z" transform="translate(-9.8 -3.98)"/><path class="b" d="M594.25,44.87l2.08-26.3,2,0.16L596.21,45Z" transform="translate(-9.8 -3.98)"/><path class="b" d="M618.69,37.72c-4.61-.47-6.92-0.69-11.54-1.1-1.92,3.57-2.88,5.35-4.77,8.92l-2.18-.19Q607,32.61,614.05,20l1.28,0.12q4.41,13.69,8.53,27.49l-2.21-.23C620.48,43.52,619.89,41.59,618.69,37.72ZM608,35c4.07,0.37,6.11.56,10.18,1-1.17-3.94-1.75-5.91-2.95-9.85q-0.38-1.16-.88-3.2a27.93,27.93,0,0,1-1.46,3C610.94,29.59,610,31.4,608,35Z" transform="translate(-9.8 -3.98)"/><path class="b" d="M648.27,50.53l-2-.26q-6.81-12.74-14-25.28l-0.16,0q-0.24,4.19-.48,6.3l-1.93,17-1.88-.21,2.93-26.21,2,0.23q7.19,12.52,14,25.25h0.12q0.25-3.24.62-6.14l2.22-17.07,1.95,0.25Z" transform="translate(-9.8 -3.98)"/><path class="b" d="M671.11,44.35c-4.59-.7-6.89-1-11.49-1.68-2.1,3.47-3.14,5.2-5.22,8.68l-2.17-.29q7.42-12.39,15.12-24.62l1.28,0.19q3.73,13.9,7.16,27.88l-2.2-.35C672.62,50.23,672.12,48.27,671.11,44.35Zm-10.54-3.22c4.05,0.57,6.08.87,10.13,1.48-1-4-1.46-6-2.46-10q-0.32-1.18-.72-3.24a27.92,27.92,0,0,1-1.61,2.94C663.77,35.84,662.7,37.61,660.58,41.13Z" transform="translate(-9.8 -3.98)"/><text class="c" transform="translate(314.03 195.44) scale(1.07 1)">INTERDENOMINACIONAL<tspan class="d"><tspan x="22.81" y="36">PRÍNCIPE DE PAZ, A.R</tspan></tspan></text><path class="e" d="M509,100.22s0,0.06,0,0h0Z" transform="translate(-9.8 -3.98)"/><path class="e" d="M488.6,83.24l0.07,0.22a1.37,1.37,0,0,1,.06.32l0.5,0.1h0A1.68,1.68,0,0,0,488.6,83.24Z" transform="translate(-9.8 -3.98)"/><path class="e" d="M534.75,83.89h0l0.5-.1a1.38,1.38,0,0,1,.06-0.32l0.07-.22A1.68,1.68,0,0,0,534.75,83.89Z" transform="translate(-9.8 -3.98)"/><path class="e" d="M515,100.22c0,0.06,0,0,0,0h0Z" transform="translate(-9.8 -3.98)"/><path class="e" d="M540.74,80.6a0.82,0.82,0,0,0-1.05-.14c-0.78.41-1.15,1.39-1.72,2a4,4,0,0,1-1.82,1.09l0-.12a1,1,0,0,0,0-.55,0.81,0.81,0,0,0-.94-0.45,2.07,2.07,0,0,0-1,.79,3.46,3.46,0,0,1-1.2,1l-0.11.07a1.83,1.83,0,0,0-.73.65,6.8,6.8,0,0,1-.79,1.52l-1.51,1.4a48.79,48.79,0,0,0-4.08,3.87A16.59,16.59,0,0,1,522.55,95a17.46,17.46,0,0,0-2.29,1.69,10.82,10.82,0,0,0-2.1,2.71A4.31,4.31,0,0,0,515,100c0-.07,0-0.14,0-0.21,0-.25-0.06-0.51-0.1-0.76a3.17,3.17,0,0,0-.14-0.64l0.2-.16A5.3,5.3,0,0,0,516.32,95a7.05,7.05,0,0,0-.32-3.55,4.41,4.41,0,0,0-8.23.72,8.09,8.09,0,0,0,.08,3.73,5.61,5.61,0,0,0,.66,1.63,3.44,3.44,0,0,0,.77.92,3.28,3.28,0,0,0-.13.63c0,0.25-.06.51-0.1,0.76,0,0.07,0,.14,0,0.21a4.31,4.31,0,0,0-3.18-.58,10.82,10.82,0,0,0-2.1-2.71A17.45,17.45,0,0,0,501.45,95a16.59,16.59,0,0,1-3.29-3.26,48.85,48.85,0,0,0-4.08-3.87l-1.51-1.4a6.8,6.8,0,0,1-.79-1.52,1.83,1.83,0,0,0-.73-0.65l-0.11-.07a3.46,3.46,0,0,1-1.2-1,2.07,2.07,0,0,0-1-.79,0.81,0.81,0,0,0-.94.45,1,1,0,0,0,0,.55l0,0.12A4,4,0,0,1,486,82.47c-0.57-.63-0.94-1.6-1.72-2a0.82,0.82,0,0,0-1.05.14,1.6,1.6,0,0,0,.16,1.43,6.72,6.72,0,0,0,1.75,3.05A14.78,14.78,0,0,0,488.45,87a4,4,0,0,1,1,.6v0a1.52,1.52,0,0,0,.15.3c0.15,0.28.32,0.54,0.49,0.81a27.5,27.5,0,0,1,1.75,3.06,11.94,11.94,0,0,0,2.32,3A22.43,22.43,0,0,1,496.75,98c0.8,1.22,1.53,2.47,2.34,3.67a13.84,13.84,0,0,0,2.46,2.89,1,1,0,0,1,.42.61,11.81,11.81,0,0,1,.31,1.22,24.12,24.12,0,0,0,1.27,4.72,4.47,4.47,0,0,0,.82,1.26c0.22,3.61,1.69,27.76,2.07,33.42,1.31,19.51-.83-30.4-1-32.55a3.07,3.07,0,0,0,.75.35c0.48,0.19.69-.59,0.21-0.78a3.73,3.73,0,0,1-2.2-2.12,13,13,0,0,1-.72-2.19c-0.19-.84-0.33-1.69-0.51-2.53a3.49,3.49,0,0,0-.67-1.79,15.17,15.17,0,0,1-2.56-2.91c-0.82-1.2-1.55-2.46-2.34-3.67a21.66,21.66,0,0,0-2.5-3.18,13.15,13.15,0,0,1-2.41-3.06c-0.24-.48-0.43-1-0.71-1.43s-0.69-1.09-1-1.64q-0.22-.35-0.43-0.7s-0.14-.34-0.12-0.15a0.61,0.61,0,0,0-.07-0.24,1.9,1.9,0,0,0-.79-0.66c-1.06-.61-2.19-1.07-3.22-1.72a5.42,5.42,0,0,1-2-3.15L484,81.25l0-.05a1.25,1.25,0,0,1,.22.2,11.53,11.53,0,0,1,.87,1.17,4.76,4.76,0,0,0,2.64,1.8,16.36,16.36,0,0,0,1.69.37,4.09,4.09,0,0,1,1.4.38,2.28,2.28,0,0,1,.7,1.31A5,5,0,0,0,492.93,88a55.67,55.67,0,0,1,4.49,4.21,19.09,19.09,0,0,0,3,3.19c0.73,0.53,1.52,1,2.23,1.55A9.83,9.83,0,0,1,505,99.66c0.09,0.15.17,0.31,0.26,0.47l0.06,0.09a0.32,0.32,0,0,0,.39.1,2.54,2.54,0,0,1,1.54-.12,5.15,5.15,0,0,1,1.14.44,1.36,1.36,0,0,0,.9.32,1.09,1.09,0,0,0,.51-1c0-.25.06-0.51,0.1-0.77s0-.23.06-0.34a0.79,0.79,0,0,1,.06-0.15,1.79,1.79,0,0,0,.78-0.29,1.88,1.88,0,0,1,1.55-.42,11.78,11.78,0,0,1,1.23.65,0.88,0.88,0,0,0,.29.06,0.67,0.67,0,0,1,.05.13c0,0.11,0,.23.06,0.34s0.06,0.51.1,0.77a1.09,1.09,0,0,0,.51,1,1.36,1.36,0,0,0,.9-0.32,5.15,5.15,0,0,1,1.14-.44,2.54,2.54,0,0,1,1.54.12,0.32,0.32,0,0,0,.39-0.1l0.06-.09c0.08-.16.17-0.32,0.26-0.47a9.82,9.82,0,0,1,2.35-2.77c0.71-.57,1.5-1,2.23-1.55a19.07,19.07,0,0,0,3-3.19A55.67,55.67,0,0,1,531.07,88a5,5,0,0,0,1.43-1.52,2.28,2.28,0,0,1,.7-1.31,4.08,4.08,0,0,1,1.4-.38,16.36,16.36,0,0,0,1.69-.37,4.76,4.76,0,0,0,2.64-1.8,11.53,11.53,0,0,1,.87-1.17,1.27,1.27,0,0,1,.22-0.2l0,0.05-0.14.42a5.42,5.42,0,0,1-2,3.15c-1,.66-2.16,1.12-3.22,1.72a1.9,1.9,0,0,0-.79.66,0.61,0.61,0,0,0-.07.24c0-.19-0.12.14-0.12,0.15q-0.21.36-.43,0.7c-0.35.54-.71,1.08-1,1.64s-0.47,1-.71,1.43a13.16,13.16,0,0,1-2.41,3.06,21.69,21.69,0,0,0-2.5,3.18c-0.79,1.22-1.52,2.47-2.34,3.67a15.18,15.18,0,0,1-2.56,2.91A3.49,3.49,0,0,0,521,106c-0.19.84-.33,1.69-0.51,2.53a13,13,0,0,1-.72,2.19,3.73,3.73,0,0,1-2.2,2.12c-0.48.19-.27,1,0.21,0.78a3.07,3.07,0,0,0,.75-0.35c-0.13,2.15-2.27,52.06-1,32.55,0.38-5.66,1.85-29.81,2.07-33.42a4.46,4.46,0,0,0,.82-1.26,24.14,24.14,0,0,0,1.27-4.72,12,12,0,0,1,.31-1.22,1,1,0,0,1,.42-0.61,13.83,13.83,0,0,0,2.46-2.89c0.81-1.2,1.55-2.46,2.34-3.67a22.41,22.41,0,0,1,2.59-3.25,11.93,11.93,0,0,0,2.32-3,27.57,27.57,0,0,1,1.75-3.06c0.17-.27.34-0.53,0.49-0.81a1.51,1.51,0,0,0,.15-0.3v0a4,4,0,0,1,1-.6,14.78,14.78,0,0,0,3.28-1.88A6.72,6.72,0,0,0,540.59,82,1.6,1.6,0,0,0,540.74,80.6Zm-51.52,3.29-0.5-.1a1.37,1.37,0,0,0-.06-0.32l-0.07-.22a1.68,1.68,0,0,1,.64.65h0ZM509,100.22c0,0.06,0,0,0,0h0Zm4.49-2.58a2.34,2.34,0,0,0-1.46-.49,2.71,2.71,0,0,0-1.36.43,2.46,2.46,0,0,1-.58.31,0.83,0.83,0,0,1-.58-0.41,5.76,5.76,0,0,1-1.07-3.81,4.23,4.23,0,0,1,.95-2.89,3.57,3.57,0,0,1,2.65-1,3.67,3.67,0,0,1,2.57,1,4.14,4.14,0,0,1,1,3,6.19,6.19,0,0,1-1,3.67,1.38,1.38,0,0,1-.61.56A1,1,0,0,1,513.47,97.63Zm1.56,2.58s0,0.06,0,0h0Zm20.31-16.76a1.38,1.38,0,0,0-.06.32l-0.5.1h0a1.68,1.68,0,0,1,.64-0.65Z" transform="translate(-9.8 -3.98)"/><path class="e" d="M543.21,157.9L540.9,156l-0.11-.06a0.43,0.43,0,0,0-.18-0.06,76.81,76.81,0,0,1-8.64-1c-1.91-.38-3.76-1.1-5.65-1.59a19.79,19.79,0,0,0-7.61-.86,18.8,18.8,0,0,0-6.22,2.32L512,155l-0.3-.15c-0.79-.42-1.57-0.84-2.39-1.21a15.93,15.93,0,0,0-3.55-1.14,12.65,12.65,0,0,0-3.82-.05,42.78,42.78,0,0,0-7.3,1.7,28.16,28.16,0,0,1-4,1c-1.62.24-3.26,0.41-4.89,0.57l-1.79.17a1.59,1.59,0,0,0-.83.17l-2.31,1.85a0.41,0.41,0,0,0,.29.69c2.79-.24,5.57-0.5,8.35-0.8a30,30,0,0,0,4.36-.65,69.48,69.48,0,0,1,7.25-1.79c2.42-.36,5.08-0.41,7.27.83,1.11,0.63,2.08,1.78,3.42,1.93s2.33-.83,3.34-1.53a9.76,9.76,0,0,1,6.43-1.39,37.13,37.13,0,0,1,7.79,1.69,26.54,26.54,0,0,0,4.47.82c3,0.34,6.05.62,9.08,0.88h0.09A0.41,0.41,0,0,0,543.21,157.9Zm-8.64-.92a28.2,28.2,0,0,1-4.37-.68,57.38,57.38,0,0,0-7.3-1.77,12.41,12.41,0,0,0-7.26.76,13.18,13.18,0,0,0-1.88,1.24,3.73,3.73,0,0,1-1.52.78c-1.19.21-2.3-1.05-3.2-1.63a10.54,10.54,0,0,0-6.54-1.3,36.6,36.6,0,0,0-7.76,1.65,26.34,26.34,0,0,1-4.5.86c-2.62.3-5.25,0.54-7.88,0.77l1.18-.94a83.25,83.25,0,0,0,8.55-1c1.86-.36,3.67-1.06,5.5-1.54a14.81,14.81,0,0,1,13.76,1.44,1,1,0,0,0,1.13.08c0.71-.36,1.4-0.76,2.12-1.1a16.13,16.13,0,0,1,3.53-1.22,11.93,11.93,0,0,1,3.91-.09,42.88,42.88,0,0,1,7.33,1.74,25.17,25.17,0,0,0,2.85.75c1.12,0.2,2.25.33,3.38,0.46q2.42,0.28,4.84.48l1.18,0.94C539.28,157.45,536.92,157.23,534.57,157Z" transform="translate(-9.8 -3.98)"/><path class="e" d="M519.93,156.45h0.36a39.9,39.9,0,0,1,8.09,1c0.8,0.17,1.49.32,2.1,0.39a89.11,89.11,0,0,0,11.29.79c1.49,0,2.4-.05,2.69-0.07a2.36,2.36,0,0,1,.58.18,3.19,3.19,0,0,1-.95.13h-30l-0.2.52-0.05.13h-3.75l-0.07-.17-0.21-.48H479.91a3.19,3.19,0,0,1-.95-0.13,2.42,2.42,0,0,1,.58-0.18c0.29,0,1.2.07,2.69,0.07a89.13,89.13,0,0,0,11.29-.79c0.61-.08,1.3-0.23,2.1-0.39a39.87,39.87,0,0,1,8.09-1h0.36c4.34,0,6,1.58,6.08,1.67l0.22,0.26h3.25l0.24-.26s1.63-1.66,6.08-1.66h0m0-.8c-4.93,0-6.67,1.92-6.67,1.92h-2.52s-1.75-1.92-6.67-1.92h-0.38c-5.22.1-8.27,1.16-10.28,1.42a88.24,88.24,0,0,1-11.18.79c-1.78,0-2.72-.08-2.72-0.08s-1.37.17-1.51,0.93c0,0.91,1.47,1,1.91,1h29.42l0.28,0.65h4.82l0.25-.65h29.42c0.43,0,1.95-.06,1.91-1-0.13-.76-1.51-0.93-1.51-0.93s-0.94.08-2.72,0.08a88.22,88.22,0,0,1-11.18-.79c-2-.26-5.06-1.32-10.28-1.42h-0.38Z" transform="translate(-9.8 -3.98)"/><path class="f" d="M272.51,235.37c0,2.79-1.36,5-3,5H123.28c-1.67,0-3-2.26-3-5h0c0-2.78,1.36-5,3-5h146.2c1.68,0,3,2.26,3,5h0Z" transform="translate(-9.8 -3.98)"/><path class="g" d="M267.84,173.88c0,14.58-8.06,26.4-18,26.4H198.28c-9.94,0-18-11.82-18-26.4h0c0-14.58,8.06-26.4,18-26.4h51.56c9.94,0,18,11.82,18,26.4h0Z" transform="translate(-9.8 -3.98)"/><path class="h" d="M249.84,147.48h-0.5a33,33,0,0,1,.5,5.71c0,21.68-21,39.25-46.94,39.25a54.65,54.65,0,0,1-19.41-3.51c3.26,6.86,8.66,11.36,14.78,11.36h51.56c9.94,0,18-11.82,18-26.4S259.78,147.48,249.84,147.48Z" transform="translate(-9.8 -3.98)"/><path class="i" d="M249.35,147.48h-25.3v52.81h25.3c9.94,0,18-11.82,18-26.4S259.29,147.48,249.35,147.48Z" transform="translate(-9.8 -3.98)"/><path class="j" d="M203.1,129.77s8.29,19.22,17.33,21.49l1.73,6.34S205.46,152.1,203.1,129.77Z" transform="translate(-9.8 -3.98)"/><path class="i" d="M203.1,129.77s3.86,18.44,17.26,24.72l-1-4S212.49,150.11,203.1,129.77Z" transform="translate(-9.8 -3.98)"/><path class="j" d="M201.49,186.37s8.29,19.22,17.33,21.49l1.73,6.34S203.86,208.71,201.49,186.37Z" transform="translate(-9.8 -3.98)"/><path class="i" d="M201.49,186.37s3.86,18.44,17.26,24.72l-1-4S210.88,206.71,201.49,186.37Z" transform="translate(-9.8 -3.98)"/><path class="j" d="M242,164.31s-8.29,19.22-17.33,21.49L223,192.14S239.67,186.64,242,164.31Z" transform="translate(-9.8 -3.98)"/><path class="i" d="M242,164.31s-3.86,18.44-17.26,24.72l1-4S232.65,184.65,242,164.31Z" transform="translate(-9.8 -3.98)"/><polygon class="j" points="209.69 129.08 206.71 239.23 218.42 238.88 213.38 128.97 209.69 129.08"/><polygon class="i" points="211.33 129.05 212.25 238.97 218.42 238.88 213.38 128.97 211.33 129.05"/><path class="g" d="M268.75,131.58c0,8.78-8.15,15.9-18.2,15.9H198.41c-10,0-18.2-7.12-18.2-15.9h0c0-8.78,8.15-15.9,18.2-15.9h52.14c10,0,18.2,7.12,18.2,15.9h0Z" transform="translate(-9.8 -3.98)"/><path class="h" d="M250.55,115.68H250a12.18,12.18,0,0,1,.51,3.44c0,13.05-21.25,23.63-47.47,23.63a89.38,89.38,0,0,1-19.62-2.12,19,19,0,0,0,14.95,6.84h52.14c10,0,18.2-7.12,18.2-15.9S260.6,115.68,250.55,115.68Z" transform="translate(-9.8 -3.98)"/><path class="i" d="M250.06,115.68H224.48v31.8h25.58c10.05,0,18.2-7.12,18.2-15.9S260.11,115.68,250.06,115.68Z" transform="translate(-9.8 -3.98)"/><ellipse class="k" cx="198.47" cy="116.36" rx="2.56" ry="2.24"/><path class="l" d="M189.18,129.81c0.61-3.76,6-9.53,10.09-9s5.36,7.11,4.75,10.86-4.42,6.39-8.52,5.88S188.57,133.57,189.18,129.81Z" transform="translate(-9.8 -3.98)"/><path class="g" d="M269.43,175.44c0,11.57-8.73,20.94-19.49,20.94H194.11c-10.76,0-19.49-9.38-19.49-20.94h0c0-11.57,8.73-21,19.49-21h55.83c10.76,0,19.49,9.38,19.49,21h0Z" transform="translate(-9.8 -3.98)"/><path class="h" d="M249.94,154.49h-0.54a19.54,19.54,0,0,1,.54,4.53c0,17.2-22.76,31.14-50.83,31.14a78.59,78.59,0,0,1-21-2.78,19.1,19.1,0,0,0,16,9h55.83c10.76,0,19.49-9.38,19.49-20.94S260.7,154.49,249.94,154.49Z" transform="translate(-9.8 -3.98)"/><path class="i" d="M249.41,154.49H222v41.89h27.39c10.76,0,19.49-9.38,19.49-20.94S260.17,154.49,249.41,154.49Z" transform="translate(-9.8 -3.98)"/><ellipse class="k" cx="200.24" cy="156.14" rx="3.32" ry="3.57"/><path class="l" d="M185.29,175.23c0.79-6,7.77-15.21,13.08-14.4s7,11.33,6.16,17.33-5.73,10.19-11,9.38S184.5,181.22,185.29,175.23Z" transform="translate(-9.8 -3.98)"/><path class="m" d="M282.63,242.47a3.76,3.76,0,0,1-3.58,3.92H147.72a3.77,3.77,0,0,1-3.58-3.92h0a3.77,3.77,0,0,1,3.58-3.93H279a3.77,3.77,0,0,1,3.58,3.93h0Z" transform="translate(-9.8 -3.98)"/><path class="f" d="M751.49,235.36c0,2.79,1.36,5,3,5h146.2c1.67,0,3-2.26,3-5h0c0-2.78-1.36-5-3-5H754.52c-1.68,0-3,2.26-3,5h0Z" transform="translate(-9.8 -3.98)"/><path class="g" d="M756.16,173.87c0,14.58,8.06,26.4,18,26.4h51.56c9.94,0,18-11.82,18-26.4h0c0-14.58-8.06-26.4-18-26.4H774.16c-9.94,0-18,11.82-18,26.4h0Z" transform="translate(-9.8 -3.98)"/><path class="h" d="M774.16,147.47h0.5a33,33,0,0,0-.5,5.71c0,21.68,21,39.25,46.94,39.25a54.65,54.65,0,0,0,19.41-3.51c-3.26,6.86-8.66,11.36-14.78,11.36H774.16c-9.94,0-18-11.82-18-26.4S764.22,147.47,774.16,147.47Z" transform="translate(-9.8 -3.98)"/><path class="i" d="M774.65,147.47h25.3v52.81h-25.3c-9.94,0-18-11.82-18-26.4S764.71,147.47,774.65,147.47Z" transform="translate(-9.8 -3.98)"/><path class="j" d="M820.9,129.76s-8.29,19.22-17.33,21.49l-1.73,6.34S818.54,152.09,820.9,129.76Z" transform="translate(-9.8 -3.98)"/><path class="i" d="M820.9,129.76S817,148.2,803.64,154.48l1-4S811.52,150.1,820.9,129.76Z" transform="translate(-9.8 -3.98)"/><path class="j" d="M822.51,186.36s-8.29,19.22-17.33,21.49l-1.73,6.34S820.14,208.69,822.51,186.36Z" transform="translate(-9.8 -3.98)"/><path class="i" d="M822.51,186.36s-3.86,18.44-17.26,24.72l1-4S813.12,206.7,822.51,186.36Z" transform="translate(-9.8 -3.98)"/><path class="j" d="M782,164.29s8.29,19.22,17.33,21.49l1.73,6.34S784.33,186.63,782,164.29Z" transform="translate(-9.8 -3.98)"/><path class="i" d="M782,164.29s3.86,18.44,17.26,24.72l-1-4S791.35,184.64,782,164.29Z" transform="translate(-9.8 -3.98)"/><polygon class="j" points="794.72 129.07 797.7 239.22 785.98 238.87 791.02 128.96 794.72 129.07"/><polygon class="i" points="793.07 129.04 792.15 238.96 785.98 238.87 791.02 128.96 793.07 129.04"/><path class="g" d="M755.25,131.57c0,8.78,8.15,15.9,18.2,15.9h52.14c10,0,18.2-7.12,18.2-15.9h0c0-8.78-8.15-15.9-18.2-15.9H773.45c-10,0-18.2,7.12-18.2,15.9h0Z" transform="translate(-9.8 -3.98)"/><path class="h" d="M773.45,115.67H774a12.18,12.18,0,0,0-.51,3.44c0,13.05,21.25,23.63,47.47,23.63a89.38,89.38,0,0,0,19.62-2.12,19,19,0,0,1-14.95,6.84H773.45c-10,0-18.2-7.12-18.2-15.9S763.4,115.67,773.45,115.67Z" transform="translate(-9.8 -3.98)"/><path class="i" d="M773.94,115.67h25.58v31.8H773.94c-10.05,0-18.2-7.12-18.2-15.9S763.89,115.67,773.94,115.67Z" transform="translate(-9.8 -3.98)"/><ellipse class="k" cx="805.93" cy="116.35" rx="2.56" ry="2.24"/><path class="l" d="M834.82,129.8c-0.61-3.76-6-9.53-10.09-9s-5.36,7.11-4.75,10.86,4.42,6.39,8.52,5.88S835.43,133.56,834.82,129.8Z" transform="translate(-9.8 -3.98)"/><path class="g" d="M754.57,175.43c0,11.57,8.73,20.94,19.49,20.94h55.83c10.76,0,19.49-9.38,19.49-20.94h0c0-11.57-8.73-21-19.49-21H774.06c-10.76,0-19.49,9.38-19.49,21h0Z" transform="translate(-9.8 -3.98)"/><path class="h" d="M774.06,154.48h0.54a19.54,19.54,0,0,0-.54,4.53c0,17.2,22.76,31.14,50.83,31.14a78.59,78.59,0,0,0,21-2.78,19.1,19.1,0,0,1-16,9H774.06c-10.76,0-19.49-9.38-19.49-20.94S763.3,154.48,774.06,154.48Z" transform="translate(-9.8 -3.98)"/><path class="i" d="M774.59,154.48H802v41.89H774.59c-10.76,0-19.49-9.38-19.49-20.94S763.83,154.48,774.59,154.48Z" transform="translate(-9.8 -3.98)"/><ellipse class="k" cx="804.16" cy="156.13" rx="3.32" ry="3.57"/><path class="l" d="M838.71,175.21c-0.79-6-7.77-15.21-13.08-14.4s-7,11.33-6.16,17.33,5.73,10.19,11,9.38S839.5,181.21,838.71,175.21Z" transform="translate(-9.8 -3.98)"/><path class="m" d="M741.37,242.46a3.76,3.76,0,0,0,3.58,3.92H876.28a3.77,3.77,0,0,0,3.58-3.92h0a3.77,3.77,0,0,0-3.58-3.93H745a3.77,3.77,0,0,0-3.58,3.93h0Z" transform="translate(-9.8 -3.98)"/></svg>